<svg id="kity_svg_6" xmlns="http://www.w3.org/2000/svg" xmlns:xlink="http://www.w3.org/1999/xlink" version="1.1" width="682px" height="912px" contenteditable="true" class="loading-target" style="cursor: default;" viewBox="-62 -482 682 912"><defs id="kity_defs_7"><marker id="kity_marker_4" orient="auto" refX="6" refY="0" viewBox="-7 -7 14 14" markerWidth="7" markerHeight="7" markerUnits="userSpaceOnUse"><path id="kity_path_5" fill="none" stroke="none" d="M6,0A6,6,0,1,1,-6,0A6,6,0,1,1,6,0"/></marker></defs><g id="kity_g_8" transform=""><g id="minder_1" text-rendering="optimize-speed" transform="matrix(1 0 0 1 0 0) scale(1 1)"><g id="drop-sibling-hinter" display="none"><path id="kity_path_22" fill="none" stroke="lightblue" stroke-width="2"/><path id="kity_path_23" fill="lightblue" stroke="none" d="M5,0h30a5,5,0,0,1,5,5v10a5,5,0,0,1,-5,5h-30a5,5,0,0,1,-5,-5v-10a5,5,0,0,1,5,-5z"/></g><g id="drop-child-hinter" display="none"><path id="kity_path_19" fill="none" stroke="lightblue" stroke-width="2"/><path id="kity_path_20" fill="lightblue" stroke="none" d="M5,0h30a5,5,0,0,1,5,5v10a5,5,0,0,1,-5,5h-30a5,5,0,0,1,-5,-5v-10a5,5,0,0,1,5,-5z"/></g><g id="minder_connect_group_1"><path id="kity_path_45" fill="none" stroke="#E25B44" stroke-width="2" d="M43 0A185,327,0,0,1,228 -327" transform="translate( 0.5 0.5 )"/><path id="kity_path_47" fill="none" stroke="#E25B44" stroke-width="2" d="M326,-327C351,-327,351,-431,376,-431" transform="translate( 0.5 0.5 )"/><path id="kity_path_49" fill="none" stroke="#E25B44" stroke-width="2" d="M326,-327C351,-327,351,-379,376,-379" transform="translate( 0.5 0.5 )"/><path id="kity_path_51" fill="none" stroke="#FF8357" stroke-width="2" d="M43 0A185,83,0,0,1,228 -83" transform="translate( 0.5 0.5 )"/><path id="kity_path_53" fill="none" stroke="#FAC172" stroke-width="2" d="M43 0A185,135,0,0,0,228 135" transform="translate( 0.5 0.5 )"/><path id="kity_path_55" fill="none" stroke="#ADC865" stroke-width="2" d="M43 0A185,327,0,0,0,228 327" transform="translate( 0.5 0.5 )"/><path id="kity_path_2250" fill="none" stroke="#E25B44" stroke-width="2" d="M326,-327C351,-327,351,-327,376,-327" transform="translate( 0.5 0.5 )"/><path id="kity_path_2354" fill="none" stroke="#E25B44" stroke-width="2" d="M326,-327C351,-327,351,-275,376,-275" transform="translate( 0.5 0.5 )"/><path id="kity_path_2632" fill="none" stroke="#E25B44" stroke-width="2" d="M326,-327C351,-327,351,-223,376,-223" transform="translate( 0.5 0.5 )"/><path id="kity_path_2790" fill="none" stroke="#FF8357" stroke-width="2" d="M325,-83C350,-83,350,-161,375,-161" transform="translate( 0.5 0.5 )"/><path id="kity_path_2886" fill="none" stroke="#FF8357" stroke-width="2" d="M325,-83C350,-83,350,-109,375,-109" transform="translate( 0.5 0.5 )"/><path id="kity_path_2990" fill="none" stroke="#FF8357" stroke-width="2" d="M325,-83C350,-83,350,-57,375,-57" transform="translate( 0.5 0.5 )"/><path id="kity_path_3232" fill="none" stroke="#FF8357" stroke-width="2" d="M325,-83C350,-83,350,-5,375,-5" transform="translate( 0.5 0.5 )"/><path id="kity_path_3600" fill="none" stroke="#FAC172" stroke-width="2" d="M373,135C398,135,398,57,423,57" transform="translate( 0.5 0.5 )"/><path id="kity_path_4134" fill="none" stroke="#FAC172" stroke-width="2" d="M373,135C398,135,398,109,423,109" transform="translate( 0.5 0.5 )"/><path id="kity_path_4174" fill="none" stroke="#FAC172" stroke-width="2" d="M373,135C398,135,398,161,423,161" transform="translate( 0.5 0.5 )"/><path id="kity_path_4216" fill="none" stroke="#FAC172" stroke-width="2" d="M373,135C398,135,398,213,423,213" transform="translate( 0.5 0.5 )"/><path id="kity_path_5356" fill="none" stroke="#ADC865" stroke-width="2" d="M342,327C367,327,367,275,392,275" transform="translate( 0.5 0.5 )"/><path id="kity_path_5668" fill="none" stroke="#ADC865" stroke-width="2" d="M342,327C367,327,367,327,392,327" transform="translate( 0.5 0.5 )"/><path id="kity_path_5916" fill="none" stroke="#ADC865" stroke-width="2" d="M342,327C367,327,367,379,392,379" transform="translate( 0.5 0.5 )"/></g><g id="boundary-container"/><g id="summary-container"/><path id="summary-range" fill="rgba(235, 240, 250, 0.2)" stroke="none" d="M0,0h0v0h0z"/><path id="summary-selection" fill="transparent" stroke="none" d="M0,0h1v15h-1z"/><g id="virtual-drag-sources-container"/><g id="relationship-container"/><path id="relationship-range" fill="rgba(235, 240, 250, 0.2)" stroke="none" d="M0,0h0v0h0z"/><path id="relationship-selection" fill="transparent" stroke="none" d="M0,0h1v15h-1z"/><g id="minder_node_1" transform="matrix( 1 0 0 1 0 0 )"><path id="kity_path_33" fill="none" stroke="none" d="M-12,-23h118a6,6,0,0,1,6,6v44a6,6,0,0,1,-6,6h-118a6,6,0,0,1,-6,-6v-44a6,6,0,0,1,6,-6z"/><path id="node_outline_1" fill="#FFF" stroke="#FF4D4F" d="M-16,-28h118a6,6,0,0,1,6,6v44a6,6,0,0,1,-6,6h-118a6,6,0,0,1,-6,-6v-44a6,6,0,0,1,6,-6z" stroke-width="4"/><g id="node_text_1" transform="translate( 0 0 )" fill="#262D3F" style="cursor: default;"><text id="kity_text_31" text-rendering="inherit" dominant-baseline="text-before-edge" dy="0" text-decoration="none" font-size="24" y="-12" font-weight="bold" font-family="黑体, SimHei">STL容器</text></g></g><g id="minder_node_5" transform="matrix( 1 0 0 1 244 -327 )"><path id="kity_path_6727" fill="none" stroke="none" d="M5,-20h72a25,25,0,0,1,25,25v0a25,25,0,0,1,-25,25h-72a25,25,0,0,1,-25,-25v0a25,25,0,0,1,25,-25z" display="none"/><g id="node_expander_4" transform="translate( 90 0 )" style="cursor: pointer;"><path id="kity_path_116" fill="white" stroke="gray" d="M6,0A6,6,0,1,1,-6,0A6,6,0,1,1,6,0"/><path id="kity_path_117" fill="none" stroke="gray" d="M-4.5,0L4.5,0"/></g><path id="node_outline_5" fill="transparent" stroke="#E25B44" d="M-6,-24h78a10,10,0,0,1,10,10v28a10,10,0,0,1,-10,10h-78a10,10,0,0,1,-10,-10v-28a10,10,0,0,1,10,-10z" stroke-width="2"/><g id="node_text_5" transform="translate( 0 -2.5 )" fill="#262D3F" style="cursor: default;"><text id="kity_text_73" text-rendering="inherit" dominant-baseline="text-before-edge" dy="0" text-decoration="none" font-size="16" y="-8">顺序容器</text></g></g><g id="minder_node_8" transform="matrix( 1 0 0 1 244 -83 )"><path id="kity_path_6728" fill="none" stroke="none" d="M5,-20h71a25,25,0,0,1,25,25v0a25,25,0,0,1,-25,25h-71a25,25,0,0,1,-25,-25v0a25,25,0,0,1,25,-25z" display="none"/><g id="node_expander_5" transform="translate( 89 0 )" style="cursor: pointer;"><path id="kity_path_119" fill="white" stroke="gray" d="M6,0A6,6,0,1,1,-6,0A6,6,0,1,1,6,0"/><path id="kity_path_120" fill="none" stroke="gray" d="M-4.5,0L4.5,0"/></g><path id="node_outline_6" fill="transparent" stroke="#FF8357" d="M-6,-24h77a10,10,0,0,1,10,10v28a10,10,0,0,1,-10,10h-77a10,10,0,0,1,-10,-10v-28a10,10,0,0,1,10,-10z" stroke-width="2"/><g id="node_text_6" transform="translate( 0 -2.5 )" fill="#262D3F" style="cursor: default;"><text id="kity_text_75" text-rendering="inherit" dominant-baseline="text-before-edge" dy="0" text-decoration="none" font-size="16" y="-8">关联容器</text></g></g><g id="minder_node_6" transform="matrix( 1 0 0 1 384 -431 )"><g id="node_expander_2" transform="translate( 48 0 )" style="cursor: pointer;" display="none"><path id="kity_path_110" fill="white" stroke="gray" d="M6,0A6,6,0,1,1,-6,0A6,6,0,1,1,6,0"/><path id="kity_path_111" fill="none" stroke="gray"/></g><path id="node_outline_3" fill="transparent" stroke="none" d="M-3,-11h40a5,5,0,0,1,5,5v12a5,5,0,0,1,-5,5h-40a5,5,0,0,1,-5,-5v-12a5,5,0,0,1,5,-5z" stroke-width="2"/><g id="node_text_3" transform="translate( 0 -2.5 )" fill="#262D3F" style="cursor: default;"><text id="kity_text_69" text-rendering="inherit" dominant-baseline="text-before-edge" dy="0" text-decoration="none" font-size="14" y="-7">array</text></g></g><g id="minder_node_7" transform="matrix( 1 0 0 1 384 -379 )"><g id="node_expander_3" transform="translate( 57 0 )" style="cursor: pointer;" display="none"><path id="kity_path_113" fill="white" stroke="gray" d="M6,0A6,6,0,1,1,-6,0A6,6,0,1,1,6,0"/><path id="kity_path_114" fill="none" stroke="gray"/></g><path id="node_outline_4" fill="transparent" stroke="none" d="M-3,-11h49a5,5,0,0,1,5,5v12a5,5,0,0,1,-5,5h-49a5,5,0,0,1,-5,-5v-12a5,5,0,0,1,5,-5z" stroke-width="2"/><g id="node_text_4" transform="translate( 0 -2.5 )" fill="#262D3F" style="cursor: default;"><text id="kity_text_71" text-rendering="inherit" dominant-baseline="text-before-edge" dy="0" text-decoration="none" font-size="14" y="-7">vector</text></g></g><g id="minder_node_2218" transform="matrix( 1 0 0 1 384 -275 )"><g id="node_expander_14" transform="translate( 93 0 )" style="cursor: pointer;" display="none"><path id="kity_path_2359" fill="white" stroke="gray" d="M6,0A6,6,0,1,1,-6,0A6,6,0,1,1,6,0"/><path id="kity_path_2360" fill="none" stroke="gray"/></g><path id="node_outline_15" fill="transparent" stroke="none" d="M-3,-11h85a5,5,0,0,1,5,5v12a5,5,0,0,1,-5,5h-85a5,5,0,0,1,-5,-5v-12a5,5,0,0,1,5,-5z" stroke-width="2"/><g id="node_text_15" transform="translate( 0 -2.5 )" fill="#262D3F" style="cursor: default;"><text id="kity_text_2356" text-rendering="inherit" dominant-baseline="text-before-edge" dy="0" text-decoration="none" font-size="14" y="-7">forward_list</text></g></g><g id="minder_node_2489" transform="matrix( 1 0 0 1 384 -223 )"><g id="node_expander_15" transform="translate( 34 0 )" style="cursor: pointer;" display="none"><path id="kity_path_2637" fill="white" stroke="gray" d="M6,0A6,6,0,1,1,-6,0A6,6,0,1,1,6,0"/><path id="kity_path_2638" fill="none" stroke="gray"/></g><path id="node_outline_16" fill="transparent" stroke="none" d="M-3,-11h26a5,5,0,0,1,5,5v12a5,5,0,0,1,-5,5h-26a5,5,0,0,1,-5,-5v-12a5,5,0,0,1,5,-5z" stroke-width="2"/><g id="node_text_16" transform="translate( 0 -2.5 )" fill="#262D3F" style="cursor: default;"><text id="kity_text_2634" text-rendering="inherit" dominant-baseline="text-before-edge" dy="0" text-decoration="none" font-size="14" y="-7">list</text></g></g><g id="minder_node_2633" transform="matrix( 1 0 0 1 383 -161 )"><g id="node_expander_17" transform="translate( 34 0 )" style="cursor: pointer;" display="none"><path id="kity_path_2795" fill="white" stroke="gray" d="M6,0A6,6,0,1,1,-6,0A6,6,0,1,1,6,0"/><path id="kity_path_2796" fill="none" stroke="gray"/></g><path id="node_outline_18" fill="transparent" stroke="none" d="M-3,-11h26a5,5,0,0,1,5,5v12a5,5,0,0,1,-5,5h-26a5,5,0,0,1,-5,-5v-12a5,5,0,0,1,5,-5z" stroke-width="2"/><g id="node_text_18" transform="translate( 0 -2.5 )" fill="#262D3F" style="cursor: default;"><text id="kity_text_2792" text-rendering="inherit" dominant-baseline="text-before-edge" dy="0" text-decoration="none" font-size="14" y="-7">set</text></g></g><g id="minder_node_2722" transform="matrix( 1 0 0 1 383 -109 )"><g id="node_expander_18" transform="translate( 44 0 )" style="cursor: pointer;" display="none"><path id="kity_path_2891" fill="white" stroke="gray" d="M6,0A6,6,0,1,1,-6,0A6,6,0,1,1,6,0"/><path id="kity_path_2892" fill="none" stroke="gray"/></g><path id="node_outline_19" fill="transparent" stroke="none" d="M-3,-11h36a5,5,0,0,1,5,5v12a5,5,0,0,1,-5,5h-36a5,5,0,0,1,-5,-5v-12a5,5,0,0,1,5,-5z" stroke-width="2"/><g id="node_text_19" transform="translate( 0 -2.5 )" fill="#262D3F" style="cursor: default;"><text id="kity_text_2888" text-rendering="inherit" dominant-baseline="text-before-edge" dy="0" text-decoration="none" font-size="14" y="-7">map</text></g></g><g id="minder_node_2819" transform="matrix( 1 0 0 1 383 -57 )"><g id="node_expander_19" transform="translate( 69 0 )" style="cursor: pointer;" display="none"><path id="kity_path_2995" fill="white" stroke="gray" d="M6,0A6,6,0,1,1,-6,0A6,6,0,1,1,6,0"/><path id="kity_path_2996" fill="none" stroke="gray"/></g><path id="node_outline_20" fill="transparent" stroke="none" d="M-3,-11h61a5,5,0,0,1,5,5v12a5,5,0,0,1,-5,5h-61a5,5,0,0,1,-5,-5v-12a5,5,0,0,1,5,-5z" stroke-width="2"/><g id="node_text_20" transform="translate( 0 -2.5 )" fill="#262D3F" style="cursor: default;"><text id="kity_text_2992" text-rendering="inherit" dominant-baseline="text-before-edge" dy="0" text-decoration="none" font-size="14" y="-7">multiset</text></g></g><g id="minder_node_3054" transform="matrix( 1 0 0 1 383 -5 )"><g id="node_expander_20" transform="translate( 78 0 )" style="cursor: pointer;" display="none"><path id="kity_path_3237" fill="white" stroke="gray" d="M6,0A6,6,0,1,1,-6,0A6,6,0,1,1,6,0"/><path id="kity_path_3238" fill="none" stroke="gray"/></g><path id="node_outline_21" fill="transparent" stroke="none" d="M-3,-11h70a5,5,0,0,1,5,5v12a5,5,0,0,1,-5,5h-70a5,5,0,0,1,-5,-5v-12a5,5,0,0,1,5,-5z" stroke-width="2"/><g id="node_text_21" transform="translate( 0 -2.5 )" fill="#262D3F" style="cursor: default;"><text id="kity_text_3234" text-rendering="inherit" dominant-baseline="text-before-edge" dy="0" text-decoration="none" font-size="14" y="-7">mutlimap</text></g></g><g id="minder_node_3399" transform="matrix( 1 0 0 1 431 57 )"><g id="node_expander_23" transform="translate( 111 0 )" style="cursor: pointer;" display="none"><path id="kity_path_3605" fill="white" stroke="gray" d="M6,0A6,6,0,1,1,-6,0A6,6,0,1,1,6,0"/><path id="kity_path_3606" fill="none" stroke="gray"/></g><path id="node_outline_24" fill="transparent" stroke="none" d="M-3,-11h103a5,5,0,0,1,5,5v12a5,5,0,0,1,-5,5h-103a5,5,0,0,1,-5,-5v-12a5,5,0,0,1,5,-5z" stroke-width="2"/><g id="node_text_24" transform="translate( 0 -2.5 )" fill="#262D3F" style="cursor: default;"><text id="kity_text_3602" text-rendering="inherit" dominant-baseline="text-before-edge" dy="0" text-decoration="none" font-size="14" y="-7">unordered_set</text></g></g><g id="minder_node_3908" transform="matrix( 1 0 0 1 431 109 )"><g id="node_expander_26" transform="translate( 120 0 )" style="cursor: pointer;" display="none"><path id="kity_path_4139" fill="white" stroke="gray" d="M6,0A6,6,0,1,1,-6,0A6,6,0,1,1,6,0"/><path id="kity_path_4140" fill="none" stroke="gray"/></g><path id="node_outline_27" fill="transparent" stroke="none" d="M-3,-11h112a5,5,0,0,1,5,5v12a5,5,0,0,1,-5,5h-112a5,5,0,0,1,-5,-5v-12a5,5,0,0,1,5,-5z" stroke-width="2"/><g id="node_text_27" transform="translate( 0 -2.5 )" fill="#262D3F" style="cursor: default;"><text id="kity_text_4136" text-rendering="inherit" dominant-baseline="text-before-edge" dy="0" text-decoration="none" font-size="14" y="-7">unordered_map</text></g></g><g id="minder_node_3941" transform="matrix( 1 0 0 1 431 161 )"><g id="node_expander_27" transform="translate( 145 0 )" style="cursor: pointer;" display="none"><path id="kity_path_4179" fill="white" stroke="gray" d="M6,0A6,6,0,1,1,-6,0A6,6,0,1,1,6,0"/><path id="kity_path_4180" fill="none" stroke="gray"/></g><path id="node_outline_28" fill="transparent" stroke="none" d="M-3,-11h137a5,5,0,0,1,5,5v12a5,5,0,0,1,-5,5h-137a5,5,0,0,1,-5,-5v-12a5,5,0,0,1,5,-5z" stroke-width="2"/><g id="node_text_28" transform="translate( 0 -2.5 )" fill="#262D3F" style="cursor: default;"><text id="kity_text_4176" text-rendering="inherit" dominant-baseline="text-before-edge" dy="0" text-decoration="none" font-size="14" y="-7">unordered_mutliset</text></g></g><g id="minder_node_3976" transform="matrix( 1 0 0 1 431 213 )"><g id="node_expander_28" transform="translate( 155 0 )" style="cursor: pointer;" display="none"><path id="kity_path_4221" fill="white" stroke="gray" d="M6,0A6,6,0,1,1,-6,0A6,6,0,1,1,6,0"/><path id="kity_path_4222" fill="none" stroke="gray"/></g><path id="node_outline_29" fill="transparent" stroke="none" d="M-3,-11h147a5,5,0,0,1,5,5v12a5,5,0,0,1,-5,5h-147a5,5,0,0,1,-5,-5v-12a5,5,0,0,1,5,-5z" stroke-width="2"/><g id="node_text_29" transform="translate( 0 -2.5 )" fill="#262D3F" style="cursor: default;"><text id="kity_text_4218" text-rendering="inherit" dominant-baseline="text-before-edge" dy="0" text-decoration="none" font-size="14" y="-7">unordered_mutlimap</text></g></g><g id="minder_node_5100" transform="matrix( 1 0 0 1 400 275 )"><g id="node_expander_30" transform="translate( 48 0 )" style="cursor: pointer;" display="none"><path id="kity_path_5361" fill="white" stroke="gray" d="M6,0A6,6,0,1,1,-6,0A6,6,0,1,1,6,0"/><path id="kity_path_5362" fill="none" stroke="gray"/></g><path id="node_outline_31" fill="transparent" stroke="none" d="M-3,-11h40a5,5,0,0,1,5,5v12a5,5,0,0,1,-5,5h-40a5,5,0,0,1,-5,-5v-12a5,5,0,0,1,5,-5z" stroke-width="2"/><g id="node_text_31" transform="translate( 0 -2.5 )" fill="#262D3F" style="cursor: default;"><text id="kity_text_5358" text-rendering="inherit" dominant-baseline="text-before-edge" dy="0" text-decoration="none" font-size="14" y="-7">stack</text></g></g><g id="minder_node_5405" transform="matrix( 1 0 0 1 400 327 )"><g id="node_expander_31" transform="translate( 56 0 )" style="cursor: pointer;" display="none"><path id="kity_path_5673" fill="white" stroke="gray" d="M6,0A6,6,0,1,1,-6,0A6,6,0,1,1,6,0"/><path id="kity_path_5674" fill="none" stroke="gray"/></g><path id="node_outline_32" fill="transparent" stroke="none" d="M-3,-11h48a5,5,0,0,1,5,5v12a5,5,0,0,1,-5,5h-48a5,5,0,0,1,-5,-5v-12a5,5,0,0,1,5,-5z" stroke-width="2"/><g id="node_text_32" transform="translate( 0 -2.5 )" fill="#262D3F" style="cursor: default;"><text id="kity_text_5670" text-rendering="inherit" dominant-baseline="text-before-edge" dy="0" text-decoration="none" font-size="14" y="-7">queue</text></g></g><g id="minder_node_5646" transform="matrix( 1 0 0 1 400 379 )"><g id="node_expander_32" transform="translate( 111 0 )" style="cursor: pointer;" display="none"><path id="kity_path_5921" fill="white" stroke="gray" d="M6,0A6,6,0,1,1,-6,0A6,6,0,1,1,6,0"/><path id="kity_path_5922" fill="none" stroke="gray" d="M-4.5,0L4.5,0"/></g><path id="node_outline_33" fill="transparent" stroke="none" d="M-3,-11h103a5,5,0,0,1,5,5v12a5,5,0,0,1,-5,5h-103a5,5,0,0,1,-5,-5v-12a5,5,0,0,1,5,-5z" stroke-width="2"/><g id="node_text_33" transform="translate( 0 -2.5 )" fill="#262D3F" style="cursor: default;"><text id="kity_text_5918" text-rendering="inherit" dominant-baseline="text-before-edge" dy="0" text-decoration="none" font-size="14" y="-7">priority_queue</text></g><path id="_kity_selection" fill="rgb(27,171,255)" stroke="none" opacity="0.5" transform="translate( -0.5 -1.5 )" style="cursor: text; display: none;" d="M0,-7h2v18h-2v-18z"/></g><g id="minder_node_2121" transform="matrix( 1 0 0 1 384 -327 )"><g id="node_expander_13" transform="translate( 56 0 )" style="cursor: pointer;" display="none"><path id="kity_path_2255" fill="white" stroke="gray" d="M6,0A6,6,0,1,1,-6,0A6,6,0,1,1,6,0"/><path id="kity_path_2256" fill="none" stroke="gray"/></g><path id="node_outline_14" fill="transparent" stroke="none" d="M-3,-11h48a5,5,0,0,1,5,5v12a5,5,0,0,1,-5,5h-48a5,5,0,0,1,-5,-5v-12a5,5,0,0,1,5,-5z" stroke-width="2"/><g id="node_text_14" transform="translate( 0 -2.5 )" fill="#262D3F" style="cursor: default;"><text id="kity_text_2252" text-rendering="inherit" dominant-baseline="text-before-edge" dy="0" text-decoration="none" font-size="14" y="-7">deque</text></g></g><g id="minder_node_9" transform="matrix( 1 0 0 1 244 135 )"><path id="kity_path_6729" fill="none" stroke="none" d="M5,-33h125a25,25,0,0,1,25,25v27a25,25,0,0,1,-25,25h-125a25,25,0,0,1,-25,-25v-27a25,25,0,0,1,25,-25z" display="none"/><g id="node_expander_6" transform="translate( 137 0 )" style="cursor: pointer;"><path id="kity_path_122" fill="white" stroke="gray" d="M6,0A6,6,0,1,1,-6,0A6,6,0,1,1,6,0"/><path id="kity_path_123" fill="none" stroke="gray" d="M-4.5,0L4.5,0"/></g><path id="node_outline_7" fill="transparent" stroke="#FAC172" d="M-6,-24h125a10,10,0,0,1,10,10v28a10,10,0,0,1,-10,10h-125a10,10,0,0,1,-10,-10v-28a10,10,0,0,1,10,-10z" stroke-width="2"/><g id="node_text_7" transform="translate( 0 -2.5 )" fill="#262D3F" style="cursor: default;"><text id="kity_text_77" text-rendering="inherit" dominant-baseline="text-before-edge" dy="0" text-decoration="none" font-size="16" y="-8">无序的关联容器</text></g></g><g id="minder_node_10" transform="matrix( 1 0 0 1 244 327 )"><path id="kity_path_6730" fill="none" stroke="none" d="M5,-33h90a25,25,0,0,1,25,25v27a25,25,0,0,1,-25,25h-90a25,25,0,0,1,-25,-25v-27a25,25,0,0,1,25,-25z" display="none"/><g id="node_expander_7" transform="translate( 106 0 )" style="cursor: pointer;"><path id="kity_path_125" fill="white" stroke="gray" d="M6,0A6,6,0,1,1,-6,0A6,6,0,1,1,6,0"/><path id="kity_path_126" fill="none" stroke="gray" d="M-4.5,0L4.5,0"/></g><path id="node_outline_8" fill="transparent" stroke="#ADC865" d="M-6,-24h94a10,10,0,0,1,10,10v28a10,10,0,0,1,-10,10h-94a10,10,0,0,1,-10,-10v-28a10,10,0,0,1,10,-10z" stroke-width="2"/><g id="node_text_8" transform="translate( 0 -2.5 )" fill="#262D3F" style="cursor: default;"><text id="kity_text_80" text-rendering="inherit" dominant-baseline="text-before-edge" dy="0" text-decoration="none" font-size="16" y="-8">容器适配器</text></g></g></g></g></svg>